<svg width="50" height="50" viewBox="0 0 50 50" fill="none" xmlns="http://www.w3.org/2000/svg">
<rect width="50" height="50" rx="8" fill="#22C55E"/>
<path d="M18.56 40.08C18.4533 39.5733 18.4533 39.08 18.56 38.6H21.44C21.5733 37.4 21.6667 36.24 21.72 35.12C21.8 33.9733 21.84 32.8 21.84 31.6V20.4C21.84 19.2 21.8 18.0667 21.72 17C21.6667 15.9333 21.5733 14.8 21.44 13.6H19.12C17.2533 13.6 15.9067 14.08 15.08 15.04C14.2533 16 13.7333 17.68 13.52 20.08C13.0933 20.16 12.6667 20.16 12.24 20.08V12H35.84V20.08C35.4133 20.16 34.9867 20.16 34.56 20.08C34.3733 17.68 33.8667 16 33.04 15.04C32.2133 14.08 30.8533 13.6 28.96 13.6H26.64C26.5067 14.8 26.4 15.9333 26.32 17C26.2667 18.0667 26.24 19.2 26.24 20.4V31.6C26.24 32.8 26.2667 33.9733 26.32 35.12C26.4 36.24 26.5067 37.4 26.64 38.6H29.52C29.6267 39.08 29.6267 39.5733 29.52 40.08C28.6133 40.0267 27.7067 40 26.8 40C25.8933 40 24.9733 40 24.04 40C23.1333 40 22.2267 40 21.32 40C20.4133 40 19.4933 40.0267 18.56 40.08Z" fill="white"/>
</svg>
